<?xml version="1.0" encoding="UTF-8" standalone="no"?>
<svg
   xmlns:dc="http://purl.org/dc/elements/1.1/"
   xmlns:cc="http://creativecommons.org/ns#"
   xmlns:rdf="http://www.w3.org/1999/02/22-rdf-syntax-ns#"
   xmlns:svg="http://www.w3.org/2000/svg"
   xmlns="http://www.w3.org/2000/svg"
   xmlns:sodipodi="http://sodipodi.sourceforge.net/DTD/sodipodi-0.dtd"
   xmlns:inkscape="http://www.inkscape.org/namespaces/inkscape"
   width="185mm"
   height="104mm"
   viewBox="0 0 185 104"
   version="1.1"
   id="svg8"
   inkscape:version="1.0.1 (3bc2e813f5, 2020-09-07)"
   sodipodi:docname="BIC-logo-Vector.svg">
  <defs
     id="defs2" />
  <sodipodi:namedview
     id="base"
     pagecolor="#ffffff"
     bordercolor="#666666"
     borderopacity="1.0"
     inkscape:pageopacity="0.0"
     inkscape:pageshadow="2"
     inkscape:zoom="11.2"
     inkscape:cx="591.30545"
     inkscape:cy="380.44449"
     inkscape:document-units="mm"
     inkscape:current-layer="layer1"
     inkscape:document-rotation="0"
     showgrid="false"
     inkscape:window-width="1920"
     inkscape:window-height="1017"
     inkscape:window-x="-8"
     inkscape:window-y="-8"
     inkscape:window-maximized="1" />
  <metadata
     id="metadata5">
    <rdf:RDF>
      <cc:Work
         rdf:about="">
        <dc:format>image/svg+xml</dc:format>
        <dc:type
           rdf:resource="http://purl.org/dc/dcmitype/StillImage" />
        <dc:title></dc:title>
      </cc:Work>
    </rdf:RDF>
  </metadata>
  <g
     inkscape:label="Calque 1"
     inkscape:groupmode="layer"
     id="layer1">
    <path
       style="fill:#000000;stroke-width:0.264583"
       d="m 14.305098,102.47109 c -0.735096,-0.15229 -1.484816,-0.5481 -1.984375,-1.04764 -0.788241,-0.78821 -0.804159,-0.85715 -0.871523,-3.774381 -0.114663,-4.9656 -0.08881,-5.83033 0.182438,-6.10158 0.171114,-0.17111 0.400786,-0.1443 0.668716,0.0781 0.276967,0.22986 0.408088,0.24326 0.408088,0.0417 0,-0.16334 0.414451,-0.29698 0.921001,-0.29698 0.755481,0 0.950095,0.11593 1.082889,0.64502 0.196855,0.78433 -0.01824,5.80314 -0.29438,6.86878 -0.127042,0.49027 -0.103509,0.70808 0.06523,0.60379 0.145181,-0.0897 0.489866,0.008 0.765966,0.21685 0.276099,0.20899 0.884763,0.383771 1.352586,0.388401 1.308392,0.0129 1.478346,-0.576301 1.364549,-4.730941 l -0.09847,-3.59502 1.2599,-0.0808 1.2599,-0.0808 0.02711,3.38806 c 0.01491,1.86343 0.03499,3.74525 0.04462,4.18181 0.05517,2.501181 -2.746674,4.001571 -6.154242,3.295611 z m 2.788831,-0.90234 0.741808,-0.38485 -1.099789,0.0438 c -0.604884,0.0241 -0.967337,0.12572 -0.805452,0.22577 0.184226,0.11386 0.106755,0.22994 -0.207088,0.31031 -0.444558,0.11383 -0.437341,0.13187 0.06364,0.15908 0.310788,0.0169 0.898883,-0.14249 1.306877,-0.35416 z m 58.087397,0.83941 c -0.162692,-0.16269 -0.295802,-0.49594 -0.295802,-0.74055 0,-0.38549 -0.886515,-3.004041 -1.560322,-4.608801 -0.363281,-0.8652 -1.614678,-4.8583 -1.614678,-5.1523 0,-0.15749 0.710867,-0.27165 1.691484,-0.27165 1.362242,0 1.728431,0.0901 1.881288,0.46302 0.363548,0.88686 1.495976,5.23033 1.541129,5.91105 0.06449,0.97226 0.885029,0.7147 0.913501,-0.28674 0.01786,-0.62765 1.500558,-6.03482 1.710751,-6.23878 0.03688,-0.0358 0.608274,-0.004 1.269761,0.0715 l 1.202706,0.13657 -0.458176,1.80417 c -0.251997,0.9923 -0.644385,2.16427 -0.871977,2.60438 -0.227589,0.44011 -0.4138,0.97736 -0.4138,1.19388 0,0.47854 -1.327335,4.716311 -1.559854,4.980131 -0.296989,0.33697 -3.122856,0.44726 -3.436011,0.13411 z m -1.4883,-8.918191 c 0.09269,-0.14998 -0.01352,-0.19434 -0.248968,-0.10398 -0.458369,0.17589 -0.542234,0.36553 -0.161649,0.36553 0.136932,0 0.321712,-0.1177 0.410617,-0.26155 z M 147.173,102.36134 c -1.78522,-0.98557 -2.95546,-2.928721 -2.95436,-4.905651 0.002,-3.95638 1.88369,-6.08542 5.3779,-6.08542 2.19094,0 3.97466,1.4539 4.30863,3.51194 l 0.16001,0.98598 h -1.49813 c -1.18815,0 -1.53195,-0.0958 -1.66155,-0.46302 -0.26668,-0.75563 -1.19941,-1.65365 -1.71756,-1.65365 -0.66478,0 -1.81414,2.41501 -1.67923,3.5284 0.19793,1.63354 0.27324,1.89794 0.60025,2.10715 0.1819,0.11637 0.33073,0.38426 0.33073,0.59531 0,0.927911 2.03056,0.0954 2.45196,-1.00534 0.13596,-0.35512 0.48383,-0.46302 1.49287,-0.46302 0.72358,0 1.38302,0.10907 1.46541,0.24238 0.50163,0.81166 -1.52248,3.312231 -3.01725,3.727481 -1.24602,0.34616 -2.91173,0.29038 -3.65968,-0.12254 z m 2.85419,-0.93524 c 0,-0.14461 -0.23506,-0.22705 -0.52235,-0.18321 -0.82863,0.12646 -0.95991,0.44613 -0.18321,0.44613 0.38806,0 0.70556,-0.11831 0.70556,-0.26292 z m 1.05833,-0.39854 c -0.18115,-0.21828 -0.36159,-0.39687 -0.40096,-0.39687 -0.0394,0 -0.14012,0.17859 -0.22388,0.39687 -0.10545,0.27481 0.0179,0.39688 0.40096,0.39688 0.46179,0 0.4988,-0.0656 0.22388,-0.39688 z m 1.41535,-0.52069 c 0.082,-0.21362 0.0352,-0.45877 -0.10398,-0.544781 -0.13917,-0.086 -0.25303,0.0888 -0.25303,0.388401 0,0.63886 0.14713,0.70331 0.35701,0.15638 z m 0.14517,-6.390981 c -0.15573,-0.18765 -0.20635,-0.46546 -0.11247,-0.61736 0.0999,-0.16171 -0.0825,-0.27449 -0.44024,-0.27212 -0.43608,0.003 -0.50981,0.0682 -0.2576,0.22802 0.19433,0.12318 0.34315,0.29995 0.33072,0.39282 -0.0647,0.48308 0.0122,0.60983 0.37008,0.60983 0.29056,0 0.31904,-0.0887 0.10951,-0.34119 z m 14.32364,8.355201 c -0.7351,-0.15229 -1.48482,-0.5481 -1.98438,-1.04764 -0.78824,-0.78821 -0.80416,-0.85715 -0.87152,-3.774381 -0.11466,-4.9656 -0.0888,-5.83033 0.18244,-6.10158 0.17111,-0.17111 0.40078,-0.1443 0.66871,0.0781 0.27697,0.22986 0.40809,0.24326 0.40809,0.0417 0,-0.16334 0.41445,-0.29698 0.921,-0.29698 0.75548,0 0.9501,0.11593 1.08289,0.64502 0.19686,0.78433 -0.0182,5.80314 -0.29438,6.86878 -0.12704,0.49027 -0.10351,0.70808 0.0652,0.60379 0.14518,-0.0897 0.48986,0.008 0.76596,0.21685 0.2761,0.20899 0.88477,0.383771 1.35259,0.388401 1.30839,0.0129 1.47834,-0.576301 1.36455,-4.730941 l -0.0985,-3.59502 1.2599,-0.0808 1.2599,-0.0808 0.0271,3.38806 c 0.0149,1.86343 0.035,3.74525 0.0446,4.18181 0.0552,2.501181 -2.74667,4.001571 -6.15424,3.295611 z m 2.78883,-0.90234 0.74181,-0.38485 -1.09979,0.0438 c -0.60488,0.0241 -0.96734,0.12572 -0.80545,0.22577 0.18422,0.11386 0.10675,0.22994 -0.20709,0.31031 -0.44456,0.11383 -0.43734,0.13187 0.0636,0.15908 0.31079,0.0169 0.89888,-0.14249 1.30688,-0.35416 z M 0.71797991,98.237999 c -0.09191,-2.33462 -0.09438,-4.7754 -0.0055,-5.42396 l 0.161626,-1.17918 H 3.8477778 c 4.22899,0 4.534367,0.0896 5.186628,1.52137 0.353443,0.77586 0.480239,1.42811 0.366108,1.8833 -0.203535,0.81177 -0.990893,1.62241 -1.575813,1.62241 -0.224366,0 -0.407938,0.18086 -0.407938,0.40191 0,0.29063 0.173498,0.35838 0.626578,0.24466 0.475849,-0.11943 0.762267,0.0152 1.190625,0.55981 0.67588,0.85924 0.713818,1.70532 0.131494,2.932481 -0.678385,1.42959 -1.458874,1.68197 -5.2014,1.68197 H 0.88507891 Z m 2.59775399,3.186441 c -0.08994,-0.14552 -0.282584,-0.26458 -0.428105,-0.26458 -0.145521,0 -0.190999,0.11906 -0.101062,0.26458 0.08994,0.14552 0.282584,0.26458 0.428105,0.26458 0.1455209,0 0.1909989,-0.11906 0.101062,-0.26458 z m 3.0427079,-0.12399 c 0,-0.23603 -0.155204,-0.32901 -0.395355,-0.23686 -0.217445,0.0834 -0.329481,0.2583 -0.248968,0.38857 0.230879,0.37358 0.644323,0.27622 0.644323,-0.15171 z m -0.345483,-1.579151 c 0.693446,-0.60233 0.71335,-0.6743 0.302084,-1.09229 -0.243991,-0.24798 -0.888816,-0.46182 -1.446381,-0.47966 -1.096349,-0.0351 -1.350201,0.34886 -1.042151,1.57622 0.213635,0.851191 1.203796,0.849261 2.186448,-0.004 z m 3.023615,-0.59212 c -0.230598,-0.39655 -0.282229,-0.40798 -0.288836,-0.0639 -0.0086,0.44558 0.269661,0.84677 0.457179,0.65925 0.06185,-0.0618 -0.01391,-0.32974 -0.168343,-0.59531 z m -2.981667,-3.66206 c 0.215815,-0.20119 0.287522,-0.55548 0.180607,-0.89234 -0.14438,-0.45491 -0.389571,-0.55867 -1.32008,-0.55867 -1.086506,0 -1.149096,0.0423 -1.27136,0.85989 -0.07073,0.47294 -5.55e-4,0.94139 0.155947,1.04098 0.386433,0.24593 1.814049,-0.0389 2.254886,-0.44986 z m 2.684785,-1.06975 c 0,-0.22687 -0.121004,-0.33771 -0.268899,-0.2463 -0.147894,0.0914 -0.200399,0.27702 -0.116677,0.41249 0.226812,0.36698 0.385576,0.29855 0.385576,-0.16619 z m -6.6862409,-1.07028 c -0.08792,-0.0879 -0.316122,-0.0973 -0.507118,-0.0209 -0.211067,0.0845 -0.148372,0.14716 0.159852,0.15985 0.278915,0.0115 0.435185,-0.0511 0.347266,-0.13896 z m 2.2544699,-0.54455 c -0.181901,-0.0734 -0.479557,-0.0734 -0.661458,0 -0.181901,0.0734 -0.03307,0.13346 0.330729,0.13346 0.363802,0 0.51263,-0.0601 0.330729,-0.13346 z m 17.8172502,9.474521 c -0.07673,-0.12415 -0.134766,-2.11845 -0.128979,-4.431771 0.0058,-2.31334 -0.03998,-4.52275 -0.101697,-4.90983 -0.146542,-0.91902 0.87295,-1.57011 1.674601,-1.06947 0.280087,0.17492 0.600161,0.31621 0.711277,0.31398 0.111115,-0.002 0.02343,-0.11946 -0.194848,-0.26053 -0.302015,-0.19518 -0.195195,-0.25745 0.446915,-0.26053 l 0.843789,-0.004 -0.06052,2.3151 c -0.03328,1.27331 -0.158355,2.52481 -0.277936,2.78113 -0.169669,0.36367 -0.407268,0.571831 -0.07457,0.444161 0.289864,-0.11123 -0.09338,-0.06565 -0.09338,0.242643 0,0.2944 0.267095,0.409556 0.0094,0.310686 -0.218281,-0.0838 0,-0.14099 0,0 0,0.14095 0.117656,0.25628 0.261457,0.25628 0.143801,0 0.337612,0.47625 0.430691,1.05833 0.167671,1.048561 0.180531,1.058771 1.392189,1.105881 0.672624,0.0261 1.609908,0.021 2.082851,-0.0115 0.852617,-0.0585 0.859895,-0.0488 0.859895,1.14308 v 1.20208 H 26.08551 c -2.101464,0 -3.883619,-0.10157 -3.960344,-0.22571 z m 7.162666,-1.42793 c -0.0734,-0.1819 -0.133453,-0.0331 -0.133453,0.33073 0,0.3638 0.06005,0.51263 0.133453,0.33073 0.0734,-0.18191 0.0734,-0.47956 0,-0.66146 z m 1.568585,1.42793 c -0.07673,-0.12415 -0.134766,-2.11845 -0.128979,-4.431771 0.0058,-2.31334 -0.03998,-4.52275 -0.101698,-4.90983 -0.146542,-0.91902 0.87295,-1.57011 1.6746,-1.06947 0.280088,0.17492 0.600163,0.31621 0.711277,0.31398 0.111115,-0.002 0.02344,-0.11946 -0.194847,-0.26053 -0.302014,-0.19518 -0.195196,-0.25745 0.446916,-0.26053 l 0.843788,-0.004 -0.06052,2.3151 c -0.03328,1.27331 -0.158353,2.52482 -0.277934,2.78113 -0.169669,0.36367 -0.525388,0.548208 -0.192688,0.420538 0.289865,-0.11123 0.0956,-0.06565 0.0956,0.242643 0,0.2944 0.196225,0.433179 -0.06142,0.334309 -0.218281,-0.0838 0,-0.14099 0,0 0,0.14095 0.117655,0.25628 0.261456,0.25628 0.143801,0 0.337614,0.47625 0.430691,1.05833 0.167672,1.048561 0.180531,1.058771 1.39219,1.105881 0.672624,0.0261 1.609908,0.021 2.08285,-0.0115 0.852618,-0.0585 0.859896,-0.0488 0.859896,1.14309 v 1.20207 h -3.820842 c -2.101464,0 -3.88362,-0.10157 -3.960344,-0.22571 z m 7.162665,-1.42793 c -0.0734,-0.1819 -0.133454,-0.0331 -0.133454,0.33073 0,0.3638 0.06005,0.51263 0.133454,0.33073 0.0734,-0.18191 0.0734,-0.47956 0,-0.66146 z m 5.24873,1.40619 c -1.602664,-0.20952 -2.814842,-0.82058 -3.400293,-1.71409 -0.651883,-0.994901 -0.559078,-1.143251 0.912646,-1.458881 1.288013,-0.27623 1.372364,-0.25933 1.871286,0.37495 0.607312,0.772071 2.063272,0.914951 2.610041,0.25613 0.479753,-0.57806 0.118308,-0.84002 -1.99159,-1.44339 -2.50842,-0.71735 -3.309382,-1.52058 -3.309382,-3.31876 0,-1.57009 0.7415,-2.6322 2.02797,-2.90483 0.412586,-0.0874 0.938324,-0.25924 1.16831,-0.3818 0.50767,-0.27052 2.598915,0.0911 3.639971,0.62947 0.416946,0.21561 0.95436,0.69157 1.19425,1.05769 0.407807,0.6224 0.406061,0.68106 -0.02685,0.9023 -1.070981,0.54732 -2.119263,0.56064 -2.725764,0.0346 -0.709068,-0.61498 -1.036685,-0.64248 -1.718072,-0.14424 -0.492022,0.35978 -0.493207,0.39162 -0.03351,0.89958 0.291237,0.32182 0.813999,0.52661 1.344229,0.52661 0.924084,0 2.755659,0.81422 3.295909,1.46518 0.45965,0.55384 0.713579,2.2919 0.334844,2.2919 -0.164561,0 -0.299202,-0.23812 -0.299202,-0.52916 0,-0.29105 -0.119062,-0.52917 -0.264583,-0.52917 -0.362085,0 -0.330584,0.26406 0.13889,1.1643 0.364493,0.698931 0.358696,0.817011 -0.06496,1.322921 -0.255844,0.30552 -0.48111,0.59 -0.500589,0.63218 -0.03726,0.0807 -2.870454,1.14101 -2.876902,1.07668 -0.0021,-0.0205 -0.599048,-0.11508 -1.326652,-0.2102 z m -1.984375,-1.60463 c 0,-0.14552 -0.12609,-0.26458 -0.280199,-0.26458 -0.15411,0 -0.206614,0.11906 -0.116676,0.26458 0.08994,0.14552 0.216027,0.26458 0.280199,0.26458 0.06417,0 0.116676,-0.11906 0.116676,-0.26458 z m 6.278342,-3.334851 c -0.08792,-0.0879 -0.316124,-0.0973 -0.507119,-0.0209 -0.211066,0.0845 -0.148373,0.14716 0.159854,0.15985 0.278913,0.0115 0.435184,-0.051 0.347265,-0.13896 z m 8.03116,-0.20595 0.04946,-5.39289 1.634315,0.0351 1.634316,0.0351 0.02503,5.35781 0.02503,5.357811 h -1.708806 -1.708806 l 0.04946,-5.392881 z m 1.565497,5.024321 c 0,-0.0572 -0.184777,-0.17489 -0.410617,-0.26156 -0.235458,-0.0904 -0.341662,-0.046 -0.248968,0.10399 0.155379,0.25141 0.659585,0.37185 0.659585,0.15757 z m -0.264583,-5.187691 c 0,-0.14552 -0.12609,-0.26458 -0.280199,-0.26458 -0.154109,0 -0.206613,0.11906 -0.116676,0.26458 0.08994,0.14552 0.216027,0.26459 0.280199,0.26459 0.06417,0 0.116676,-0.11907 0.116676,-0.26459 z m 10.827107,5.043811 c -0.521721,-0.44352 -2.258142,-3.137651 -3.208197,-4.977661 -0.319334,-0.61846 -0.646176,-1.12441 -0.726321,-1.12433 -0.191979,2.1e-4 -0.07132,4.687091 0.144743,5.622251 0.166097,0.7189 0.152342,0.7276 -1.150467,0.7276 h -1.318572 l -0.191556,-4.881101 c -0.105354,-2.68461 -0.114162,-5.00633 -0.01958,-5.15938 0.09459,-0.15305 0.804386,-0.27827 1.577322,-0.27827 h 1.405339 l 1.333699,2.0527 c 0.733533,1.12899 1.482434,2.37914 1.664224,2.77813 0.589872,1.29462 0.838551,0.82148 0.626927,-1.19281 -0.349152,-3.32333 -0.127479,-4.21016 0.91317,-3.65322 0.368564,0.19725 0.557572,0.20556 0.557572,0.0245 0,-0.43403 0.720207,-0.31801 0.897734,0.14462 0.456023,1.18837 -0.07841,8.041201 -0.684025,8.770911 -0.257505,0.31028 -0.231886,0.43666 0.129519,0.63891 0.711782,0.39834 0.530273,0.68779 -0.507246,0.80892 -0.622279,0.0726 -1.128186,-0.0331 -1.444291,-0.30178 z m -4.940128,-0.19195 c -0.181901,-0.0734 -0.479557,-0.0734 -0.661458,0 -0.181901,0.0734 -0.03307,0.13345 0.330729,0.13345 0.363802,0 0.51263,-0.06 0.330729,-0.13345 z m 20.487097,-4.317161 c -0.09238,-2.76186 -0.102547,-5.19202 -0.02259,-5.40037 0.118057,-0.30765 0.874879,-0.37082 4.028712,-0.33626 l 3.883344,0.0426 v 1.19062 1.19063 l -2.248954,7.9e-4 c -2.735199,10e-4 -3.052331,0.14789 -2.524268,1.16905 0.375383,0.72591 0.414599,0.73697 1.707208,0.48139 1.802594,-0.35642 2.139974,-0.18008 2.139974,1.11855 v 1.06663 h -1.728092 c -1.151747,0 -1.762077,0.11031 -1.829985,0.33073 -0.05604,0.1819 -0.175273,0.66468 -0.264962,1.07284 l -0.163073,0.742111 2.284346,-0.185351 c 2.547156,-0.20667 2.748896,-0.10323 2.756046,1.413111 0.004,0.84566 -0.0168,0.86042 -1.25272,0.89123 -0.691219,0.0172 -1.375828,0.006 -1.521349,-0.0251 -1.00434,-0.21418 -1.190625,-0.21278 -1.190625,0.009 0,0.13716 -0.874136,0.24939 -1.942523,0.24939 h -1.942521 l -0.167963,-5.021561 z m 7.624886,-4.50345 c -0.0899,-0.14552 -0.34212,-0.26458 -0.5604,-0.26458 -0.21828,0 -0.32329,0.11906 -0.23335,0.26458 0.0899,0.14552 0.34211,0.26459 0.56039,0.26459 0.21828,0 0.32329,-0.11907 0.23336,-0.26459 z m 5.556252,9.277551 c -1.60267,-0.20952 -2.81485,-0.82058 -3.400302,-1.71409 -0.65188,-0.994901 -0.55907,-1.143251 0.912652,-1.458881 1.28801,-0.27623 1.37236,-0.25933 1.87129,0.37495 0.60731,0.772071 2.06327,0.914951 2.61004,0.25613 0.47975,-0.57806 0.1183,-0.84002 -1.99159,-1.44339 -2.50842,-0.71735 -3.309392,-1.52058 -3.309392,-3.31876 0,-1.57009 0.741502,-2.6322 2.027972,-2.90483 0.41259,-0.0874 0.93833,-0.25924 1.16831,-0.3818 0.50767,-0.27052 2.59892,0.0911 3.63998,0.62947 0.416938,0.21561 0.954358,0.69157 1.194238,1.05769 0.40781,0.6224 0.40607,0.68106 -0.0268,0.9023 -1.07098,0.54732 -2.119258,0.56064 -2.725758,0.0346 -0.70907,-0.61498 -1.03669,-0.64248 -1.71808,-0.14424 -0.49202,0.35978 -0.4932,0.39162 -0.0335,0.89958 0.29123,0.32182 0.814,0.52661 1.34423,0.52661 0.92408,0 2.755658,0.81422 3.295908,1.46518 0.45965,0.55384 0.71357,2.2919 0.33484,2.2919 -0.16456,0 -0.2992,-0.23812 -0.2992,-0.52916 0,-0.29105 -0.11907,-0.52917 -0.26459,-0.52917 -0.36208,0 -0.33058,0.26406 0.13889,1.1643 0.3645,0.698931 0.3587,0.817011 -0.0649,1.322921 -0.25585,0.30552 -0.48111,0.59 -0.50059,0.63218 -0.0373,0.0807 -2.870448,1.14101 -2.876898,1.07668 -0.002,-0.0205 -0.59905,-0.11508 -1.32665,-0.2102 z m -1.98438,-1.60463 c 0,-0.14552 -0.12609,-0.26458 -0.2802,-0.26458 -0.15411,0 -0.20661,0.11906 -0.11667,0.26458 0.0899,0.14552 0.21602,0.26458 0.28019,0.26458 0.0642,0 0.11668,-0.11906 0.11668,-0.26458 z m 6.278338,-3.334851 c -0.0879,-0.0879 -0.31612,-0.0973 -0.50712,-0.0209 -0.21106,0.0845 -0.14837,0.14716 0.15986,0.15985 0.27891,0.0115 0.43518,-0.051 0.34726,-0.13896 z m 4.69404,4.462461 c 0.24033,-0.95753 0.1892,-7.006781 -0.0613,-7.250041 -0.10751,-0.10441 -0.61219,-0.2281 -1.12152,-0.27485 -0.88336,-0.0811 -0.92977,-0.13644 -1.00697,-1.20074 -0.10202,-1.40647 0.074,-1.46125 4.33438,-1.3488 l 3.15489,0.0833 v 1.19062 c 0,1.16273 -0.0203,1.19125 -0.86431,1.21709 -0.47537,0.0145 -0.94016,0.10231 -1.03287,0.19502 -0.0927,0.0927 -0.16345,1.68534 -0.15721,3.53919 0.0149,4.441181 -0.0412,4.573701 -1.9365,4.573701 h -1.49044 z m 6.24754,-4.668411 0.0495,-5.39289 1.63432,0.0351 1.63431,0.0351 0.025,5.35781 0.025,5.357811 h -1.7088 -1.70881 l 0.0495,-5.392881 z m 1.5655,5.024321 c 0,-0.0572 -0.18478,-0.17489 -0.41062,-0.26156 -0.23546,-0.0904 -0.34166,-0.046 -0.24897,0.10399 0.15538,0.25141 0.65959,0.37185 0.65959,0.15757 z m -0.26459,-5.187691 c 0,-0.14552 -0.12609,-0.26458 -0.2802,-0.26458 -0.1541,0 -0.20661,0.11906 -0.11667,0.26458 0.0899,0.14552 0.21603,0.26459 0.2802,0.26459 0.0642,0 0.11667,-0.11907 0.11667,-0.26459 z m 10.82711,5.043811 c -0.52172,-0.44352 -2.25814,-3.137651 -3.2082,-4.977661 -0.31933,-0.61846 -0.64617,-1.12441 -0.72632,-1.12433 -0.19198,2.1e-4 -0.0713,4.687091 0.14475,5.622251 0.16609,0.7189 0.15234,0.7276 -1.15047,0.7276 h -1.31857 l -0.19156,-4.881101 c -0.10535,-2.68461 -0.11416,-5.00633 -0.0196,-5.15938 0.0946,-0.15305 0.80439,-0.27827 1.57732,-0.27827 h 1.40534 l 1.3337,2.0527 c 0.73353,1.12899 1.48244,2.37914 1.66423,2.77813 0.58987,1.29462 0.83855,0.82148 0.62692,-1.19281 -0.34915,-3.32333 -0.12748,-4.21016 0.91317,-3.65322 0.36857,0.19725 0.55757,0.20556 0.55757,0.0245 0,-0.43403 0.72021,-0.31801 0.89774,0.14462 0.45602,1.18837 -0.0784,8.041201 -0.68403,8.770911 -0.2575,0.31028 -0.23188,0.43666 0.12952,0.63891 0.71178,0.39834 0.53028,0.68779 -0.50724,0.80892 -0.62228,0.0726 -1.12819,-0.0331 -1.44429,-0.30178 z m -4.94013,-0.19195 c -0.1819,-0.0734 -0.47955,-0.0734 -0.66146,0 -0.1819,0.0734 -0.0331,0.13345 0.33073,0.13345 0.36381,0 0.51263,-0.06 0.33073,-0.13345 z m 12.76615,0.51445 c -0.90864,-0.22074 -2.15486,-1.32632 -2.63458,-2.337251 -0.35268,-0.74321 -0.43858,-1.48222 -0.36796,-3.16557 0.0833,-1.98476 0.17029,-2.29381 0.90468,-3.21257 1.25399,-1.56878 2.28422,-1.9977 4.46411,-1.85858 1.74748,0.11153 1.88622,0.16991 2.84427,1.197 1.57252,1.68582 1.30032,2.58314 -0.80376,2.64959 -0.93449,0.0295 -1.17473,-0.0602 -1.28441,-0.47961 -0.0742,-0.28376 -0.43483,-0.71243 -0.80138,-0.95261 -0.63956,-0.41905 -0.69398,-0.40917 -1.34786,0.2447 -0.53025,0.53026 -0.69801,0.99117 -0.75632,2.07801 -0.10436,1.94498 0.0989,2.62364 1.00047,3.34073 0.73891,0.587711 0.81628,0.598081 1.43552,0.19234 0.9257,-0.60655 0.84865,-1.2104 -0.15445,-1.2104 -0.7881,0 -0.80687,-0.029 -0.72761,-1.12448 l 0.0814,-1.12448 h 2.24896 2.24896 l 0.0255,2.84427 c 0.0253,2.819741 0.0202,2.844271 -0.5989,2.844271 -0.34344,0 -0.84443,-0.13739 -1.1133,-0.3053 -0.38633,-0.24127 -0.61991,-0.21352 -1.11362,0.13229 -0.60097,0.42094 -2.33768,0.5421 -3.54971,0.24765 z m -0.66146,-1.66214 c 0,-0.14552 -0.0525,-0.26458 -0.11668,-0.26458 -0.0642,0 -0.19026,0.11906 -0.2802,0.26458 -0.0899,0.14552 -0.0374,0.26458 0.11668,0.26458 0.15411,0 0.2802,-0.11906 0.2802,-0.26458 z m 24.2334,1.62637 c -0.0767,-0.12415 -0.13477,-2.11845 -0.12898,-4.431771 0.006,-2.31334 -0.04,-4.52275 -0.1017,-4.90983 -0.14654,-0.91902 0.87295,-1.57011 1.6746,-1.06947 0.28009,0.17492 0.60016,0.31621 0.71128,0.31398 0.11111,-0.002 0.0234,-0.11946 -0.19485,-0.26053 -0.30201,-0.19518 -0.1952,-0.25745 0.44692,-0.26053 l 0.84378,-0.004 -0.0605,2.3151 c -0.0333,1.27331 -0.15836,2.52482 -0.27794,2.78113 -0.16967,0.36367 -0.47813,0.571831 -0.14543,0.444161 0.28986,-0.11123 0.072,-0.160141 0.072,0.148149 0,0.2944 0.30962,0.329189 0.052,0.230319 -0.21828,-0.0838 -0.13701,0.03387 -0.13701,0.174861 0,0.14095 0.11765,0.25628 0.26146,0.25628 0.1438,0 0.33761,0.47625 0.43069,1.05833 0.16767,1.048561 0.18053,1.058771 1.39219,1.105881 0.67262,0.0261 1.6099,0.021 2.08285,-0.0115 0.85261,-0.0585 0.85989,-0.0488 0.85989,1.14309 v 1.20207 h -3.82084 c -2.10146,0 -3.88362,-0.10157 -3.96034,-0.22571 z m 7.16266,-1.42793 c -0.0734,-0.1819 -0.13345,-0.0331 -0.13345,0.33073 0,0.3638 0.06,0.51263 0.13345,0.33073 0.0734,-0.18191 0.0734,-0.47956 0,-0.66146 z m 12.70514,-2.591131 c -0.0919,-2.33462 -0.0944,-4.7754 -0.005,-5.42396 l 0.16161,-1.17918 h 2.97367 c 4.22899,0 4.53437,0.0896 5.18663,1.52137 0.35345,0.77586 0.48024,1.42811 0.36611,1.8833 -0.20353,0.81177 -0.99089,1.62241 -1.57581,1.62241 -0.22437,0 -0.40794,0.18086 -0.40794,0.40191 0,0.29063 0.1735,0.35838 0.62658,0.24466 0.47585,-0.11943 0.76226,0.0152 1.19062,0.55981 0.67588,0.85924 0.71382,1.70532 0.1315,2.932481 -0.67839,1.42959 -1.45888,1.68197 -5.2014,1.68197 h -3.27898 z m 2.59776,3.186441 c -0.0899,-0.14552 -0.28259,-0.26458 -0.42811,-0.26458 -0.14552,0 -0.191,0.11906 -0.10106,0.26458 0.0899,0.14552 0.28258,0.26458 0.4281,0.26458 0.14553,0 0.191,-0.11906 0.10107,-0.26458 z m 3.04271,-0.12399 c 0,-0.23603 -0.15521,-0.32901 -0.39536,-0.23686 -0.21745,0.0834 -0.32948,0.2583 -0.24897,0.38857 0.23088,0.37358 0.64433,0.27622 0.64433,-0.15171 z m -0.34549,-1.579151 c 0.69345,-0.60233 0.71335,-0.6743 0.30209,-1.09229 -0.24399,-0.24798 -0.88882,-0.46182 -1.44638,-0.47966 -1.09635,-0.0351 -1.35021,0.34886 -1.04215,1.57622 0.21363,0.851191 1.20379,0.849261 2.18644,-0.004 z m 3.02362,-0.59212 c -0.2306,-0.39655 -0.28223,-0.40798 -0.28884,-0.0639 -0.009,0.44558 0.26966,0.84677 0.45718,0.65925 0.0619,-0.0618 -0.0139,-0.32974 -0.16834,-0.59531 z m -2.98167,-3.66206 c 0.21582,-0.20119 0.28752,-0.55548 0.18061,-0.89234 -0.14438,-0.45491 -0.38957,-0.55867 -1.32008,-0.55867 -1.08651,0 -1.1491,0.0423 -1.27136,0.85989 -0.0707,0.47294 -5.3e-4,0.94139 0.15595,1.04098 0.38643,0.24593 1.81404,-0.0389 2.25488,-0.44986 z m 2.68479,-1.06975 c 0,-0.22687 -0.12101,-0.33771 -0.2689,-0.2463 -0.1479,0.0914 -0.2004,0.27702 -0.11668,0.41249 0.22681,0.36698 0.38558,0.29855 0.38558,-0.16619 z m -6.68624,-1.07028 c -0.0879,-0.0879 -0.31613,-0.0973 -0.50712,-0.0209 -0.21107,0.0845 -0.14838,0.14716 0.15985,0.15985 0.27891,0.0115 0.43518,-0.051 0.34727,-0.13896 z m 2.25446,-0.54455 c -0.1819,-0.0734 -0.47955,-0.0734 -0.66145,0 -0.1819,0.0734 -0.0331,0.13346 0.33073,0.13346 0.3638,0 0.51263,-0.0601 0.33072,-0.13346 z M 0.94062191,86.985979 C 2.7167049,78.998349 8.0531578,67.887709 18.426621,50.579649 c 1.80271,-3.00781 3.277654,-5.61123 3.277654,-5.78538 0,-0.56553 -1.815776,-2.8083 -3.10669,-3.83725 -2.214241,-1.76492 -3.24331,-2.85859 -3.24331,-3.44694 0,-0.35014 0.538106,-1.06871 1.389063,-1.85491 0.763984,-0.70584 1.587938,-1.57378 1.831009,-1.92876 0.439556,-0.64193 0.430621,-0.65608 -1.651995,-2.615254 -2.753296,-2.590102 -4.479051,-4.902803 -6.070897,-8.13567 -1.6260882,-3.302407 -2.1763552,-5.575414 -2.1780952,-8.99713 -0.0016,-3.110934 0.65063,-5.8439044 2.0691662,-8.6704314 0.820216,-1.634335 2.396009,-4.160563 2.595248,-4.160563 0.04111,0 -0.09204,0.744141 -0.295895,1.653646 -0.539411,2.406645 -0.51282,7.5997094 0.04979,9.7234374 0.782593,2.95412 2.128425,5.188979 4.631255,7.690563 3.199308,3.197715 7.21294,5.415497 12.656996,6.993784 2.324738,0.673966 3.445643,1.425435 4.157586,2.787296 1.072888,2.052312 0.554418,4.880352 -1.208352,6.591062 -1.999086,1.94005 -4.55799,1.8658 -8.911635,-0.25858 -2.595905,-1.26668 -2.747189,-1.30726 -3.571875,-0.95826 -2.188374,0.9261 -2.290179,2.43694 -0.312435,4.63667 0.840962,0.93535 1.615172,1.48519 2.621311,1.86163 2.172333,0.81278 5.227788,1.53208 8.685006,2.0446 3.058626,0.45342 3.108301,0.47161 2.38125,0.87158 -0.829823,0.45651 -5.048218,0.57348 -7.357126,0.204 l -1.322916,-0.2117 -2.838759,4.9742 c -4.52443,7.9279 -10.018163,19.41739 -12.246313,25.61169 -0.6498452,1.80659 -3.4561762,5.46748 -8.4431991,11.01425 -1.15078399,1.27994 -1.23124599,1.32564 -1.07184099,0.60875 z M 47.931365,86.144749 c 0.627094,-3.43246 2.909424,-8.89615 6.47819,-15.50819 1.245979,-2.30849 2.16584,-4.28869 2.044132,-4.40045 -0.336349,-0.30885 -7.051842,-2.76435 -9.746287,-3.5637 -2.58617,-0.76722 -3.350977,-1.23383 -7.540625,-4.60047 l -2.778125,-2.23239 1.358593,0.17564 c 4.300998,0.55604 12.472321,3.68608 20.96607,8.03109 l 2.745496,1.40446 4.594178,-0.93086 c 2.526797,-0.51197 4.781396,-0.93086 5.010221,-0.93086 0.540427,0 3.29315,1.34719 3.29315,1.61168 0,0.11159 -0.68461,0.3373 -1.521354,0.50158 -0.836745,0.16428 -3.705784,0.83727 -6.375641,1.49552 l -4.854287,1.19683 -1.322967,-0.56913 c -0.72763,-0.31302 -1.368216,-0.52387 -1.423519,-0.46857 -0.59935,0.59935 -3.448346,7.29002 -5.076118,11.92091 -0.611516,1.73972 -1.118727,2.53566 -3.238614,5.08216 -1.382448,1.66066 -2.587466,3.02436 -2.677819,3.03045 -0.09036,0.006 -0.06096,-0.55447 0.06533,-1.2457 z m 79.473955,-0.60142 c -5.45577,-0.46784 -8.06738,-0.88448 -12.7,-2.02611 -18.092748,-4.45863 -32.956094,-6.44426 -48.880306,-6.53004 -3.746352,-0.0202 -6.812211,-0.10775 -6.813021,-0.19458 -0.0026,-0.27233 5.565899,-1.52107 8.332906,-1.86869 3.664347,-0.46034 13.559819,-0.38004 19.314583,0.15674 8.62666,0.80466 17.501308,2.15674 28.707288,4.37365 16.92348,3.34801 23.09202,3.84618 47.625,3.84618 19.17833,0 18.8505,-0.0488 7.01146,1.0447 -11.47316,1.05974 -15.60357,1.26018 -27.64896,1.34173 -6.76672,0.0458 -13.49375,-0.0188 -14.94895,-0.14358 z M 24.171823,83.712909 c -0.316339,-0.1365 -1.052053,-0.89372 -1.63492,-1.68272 -1.503285,-2.03492 -3.112229,-3.33741 -4.371369,-3.53875 l -1.049343,-0.1678 0.721296,-0.62043 c 1.456203,-1.25258 3.129989,-0.60518 5.630675,2.17785 1.967654,2.18981 3.037959,2.74853 5.319072,2.77665 l 1.515999,0.0187 -1.190625,0.53773 c -1.333042,0.60204 -4.062797,0.87762 -4.940785,0.49878 z m 8.894084,-11.9081 c -1.374172,-0.41698 -1.831428,-0.85246 -2.769473,-2.63756 -1.299438,-2.47283 -2.617166,-3.94365 -4.18325,-4.66922 l -1.309058,-0.6065 0.89747,-0.54714 c 2.043027,-1.24552 3.454423,-0.45402 6.015343,3.37336 1.788327,2.67272 3.165322,3.59951 5.862336,3.94569 l 1.719792,0.22075 -2.134685,0.58575 c -2.236743,0.61375 -2.979412,0.67443 -4.098475,0.33487 z m 43.045924,-9.55791 c -0.383426,-0.3016 -0.69714,-0.70773 -0.69714,-0.90252 0,-0.65809 -1.556843,-1.68708 -2.844713,-1.88021 -0.690081,-0.10349 -2.174946,-0.0791 -3.299698,0.0541 l -2.045001,0.24222 -0.315979,-0.76284 c -0.362741,-0.87574 -1.653003,-1.75616 -2.575777,-1.75761 -1.052409,-0.002 -2.818347,-2.0086 -3.336882,-3.79229 -0.376368,-1.29466 -0.39541,-1.73373 -0.124228,-2.86415 0.313801,-1.30808 0.337019,-1.33178 1.147427,-1.17129 1.1816,0.23399 3.024769,1.44512 3.95402,2.59816 0.770856,0.95649 0.781556,1.00634 0.324401,1.5115 -0.657956,0.72703 -0.357653,1.25791 0.9037,1.59755 0.883753,0.23797 1.240737,0.21078 2.007148,-0.15291 1.297953,-0.61592 1.562655,-1.20834 0.910404,-2.03755 -0.507534,-0.64522 -7.352799,-4.90354 -9.30975,-5.79143 -1.243468,-0.56417 -3.532966,-2.10578 -7.223197,-4.86366 -4.350564,-3.25137 -6.159211,-4.03191 -12.250586,-5.28682 -1.846453,-0.3804 -3.408624,-0.74307 -3.471487,-0.80593 -0.341114,-0.34111 2.705698,-2.18489 4.278961,-2.58941 3.019933,-0.7765 7.544609,0.65007 11.148763,3.51505 1.819688,1.44648 1.482239,0.78941 -0.59047,-1.14975 -1.540981,-1.44169 -3.656976,-2.67222 -5.808935,-3.37812 -1.386319,-0.45474 -2.414474,-0.58329 -4.715103,-0.58951 l -2.942193,-0.008 -0.307853,-1.201188 C 38.478845,29.029096 37.272131,27.068629 35.432726,25.102299 34.542665,24.15083 33.942027,23.37235 34.097972,23.37235 c 0.650605,0 7.497606,1.875141 9.698056,2.655937 1.309161,0.464537 3.660645,1.486734 5.225521,2.271549 1.564873,0.784812 2.845226,1.324147 2.845226,1.19852 0,-0.125627 -0.647716,-0.840997 -1.439371,-1.589709 -1.370941,-1.29658 -1.405532,-1.361223 -0.727604,-1.359736 1.528136,0.0034 5.858661,0.794464 7.347045,1.342183 0.861743,0.317119 2.207588,1.008663 2.990771,1.536764 l 1.423966,0.960183 0.03124,2.125208 c 0.02839,1.93126 0.11575,2.26565 0.957284,3.66427 1.217414,2.02332 7.637057,8.56591 9.654987,9.8399 0.871857,0.55043 2.597758,1.43152 3.835336,1.95798 3.297627,1.40278 4.052541,2.80542 3.009858,5.59233 -0.480306,1.28377 -0.66203,6.84502 -0.273428,8.36764 l 0.219458,0.8599 h -1.043675 c -0.655225,0 -1.303145,-0.2041 -1.740813,-0.54838 z M 65.703993,37.146509 c -1.176803,-1.1001 -2.271284,-2.26026 -2.432179,-2.57811 -0.395605,-0.78153 -0.371031,-2.4536 0.03819,-2.59852 0.181901,-0.0644 1.556065,-0.296405 3.053693,-0.515533 6.313467,-0.923772 9.83233,-3.088606 11.777679,-7.245723 0.72145,-1.5417 0.828479,-2.083061 0.928512,-4.696469 0.121317,-3.169424 -0.474741,-6.861873 -1.588007,-9.8373384 -0.292254,-0.78112 -0.462918,-1.488672 -0.379252,-1.572337 0.08366,-0.08367 1.109131,0.804894 2.278814,1.9745774 3.539107,3.539105 4.933974,7.25482 4.710782,12.548813 -0.190884,4.52768 -1.753433,8.063598 -4.996513,11.30668 -2.722708,2.7227 -6.022062,4.42258 -9.64964,4.97162 l -1.602436,0.24254 z"
       id="path847"
       sodipodi:nodetypes="cssscsssscccscccssccccssssccssssscsssccssssssssssscsscsssssssssssssssssssssssssccscsscsssssssssccscccscccccssssccsccsssssscsscssssssscsscscsccsccsssssscsssssscssscsscsssscsccsssscsssccscssssssssssscsccsssscsssccscssssssscsssssscssssssssssssssscccsssssscsssccccccccccscsssssssssssscssscsssssssscsscsscsscccccssscssscssccssccssscsscsssssscssscssssssssssscccsscssscsssssssccscscscsccccccccccscsssscsscsssscscscssssssssccccsscsscsssssssssssccccsssssssscsssccscscccsssssssccscssssscscccsssssssssccssssssssscsssccsccssssssssssssscssscsscssscssssscsscsssssssscssscssssssssscsscssssscscsscssssscsssssssssscssscsssssscssscsssssccscssssssssssssssssccssssssscsscsssssscssssscssssssssscs" />
  </g>
</svg>
